<svg width="10" height="16" viewBox="0 0 10 16" fill="none" xmlns="http://www.w3.org/2000/svg">
<path d="M9.15467 1.28244C9.36608 1.49392 9.48485 1.7807 9.48485 2.07972C9.48485 2.37875 9.36608 2.66553 9.15467 2.877L3.57259 8.45908L9.15467 14.0412C9.36009 14.2538 9.47376 14.5387 9.47119 14.8344C9.46862 15.1301 9.35002 15.4129 9.14094 15.622C8.93185 15.8311 8.64901 15.9497 8.35334 15.9522C8.05766 15.9548 7.7728 15.8411 7.56012 15.6357L1.18076 9.25636C0.969349 9.04488 0.850586 8.7581 0.850586 8.45908C0.850586 8.16005 0.969349 7.87327 1.18076 7.6618L7.56012 1.28244C7.77159 1.07103 8.05837 0.952271 8.35739 0.952271C8.65642 0.952271 8.9432 1.07103 9.15467 1.28244Z" fill="black"/>
</svg>
