<svg width="10" height="16" viewBox="0 0 10 16" fill="none" xmlns="http://www.w3.org/2000/svg">
<path d="M1.18078 15.6221C0.969366 15.4106 0.850603 15.1238 0.850603 14.8248C0.850603 14.5258 0.969366 14.239 1.18078 14.0275L6.76285 8.44546L1.18078 2.86338C0.975358 2.6507 0.861693 2.36584 0.864262 2.07016C0.866832 1.77449 0.98543 1.49165 1.19451 1.28256C1.4036 1.07348 1.68644 0.954883 1.98211 0.952314C2.27779 0.949745 2.56265 1.06341 2.77533 1.26883L9.15469 7.64818C9.3661 7.85966 9.48486 8.14644 9.48486 8.44546C9.48486 8.74449 9.3661 9.03127 9.15469 9.24274L2.77533 15.6221C2.56386 15.8335 2.27708 15.9523 1.97805 15.9523C1.67903 15.9523 1.39225 15.8335 1.18078 15.6221Z" fill="black"/>
</svg>
